<svg id="svg" version="1.1" xmlns="http://www.w3.org/2000/svg" xmlns:xlink="http://www.w3.org/1999/xlink" width="400" height="328.07339449541286" viewBox="0, 0, 400,328.07339449541286"><g id="svgg"><path id="path0" d="M254.799 112.582 C 240.378 113.353,225.361 117.947,214.510 124.906 C 213.286 125.691,212.208 126.333,212.114 126.333 C 211.766 126.333,205.500 131.105,203.117 133.185 C 196.566 138.901,191.562 144.891,187.322 152.092 C 185.117 155.837,183.882 158.334,182.411 162.018 C 182.249 162.424,181.980 163.089,181.813 163.495 C 180.967 165.550,179.574 170.536,178.902 173.913 C 177.841 179.249,177.687 181.024,177.687 187.859 C 177.687 195.997,178.195 199.991,180.048 206.399 C 184.743 222.636,193.842 235.579,208.047 246.227 C 210.003 247.693,212.093 249.188,212.692 249.549 C 218.720 253.180,223.376 255.448,229.861 257.914 C 231.320 258.469,235.868 259.850,237.408 260.205 C 238.310 260.413,239.565 260.710,240.197 260.866 C 245.756 262.239,251.705 262.833,259.885 262.833 C 268.065 262.833,274.015 262.239,279.573 260.866 C 280.205 260.710,281.460 260.408,282.363 260.194 C 284.456 259.698,288.785 258.351,290.856 257.551 C 291.737 257.210,292.657 256.932,292.899 256.932 C 293.263 256.932,293.356 260.404,293.430 276.647 C 293.516 295.729,293.540 296.377,294.156 296.827 C 295.066 297.492,319.065 297.480,323.380 296.813 C 326.652 296.307,329.081 295.745,329.602 295.375 C 329.789 295.242,330.524 294.935,331.235 294.693 C 336.092 293.038,340.321 288.055,341.559 282.527 C 342.051 280.333,341.903 265.597,341.372 263.783 C 340.950 262.345,339.554 259.435,339.212 259.284 C 339.077 259.223,338.966 258.995,338.966 258.777 C 338.966 257.271,332.812 252.678,329.368 251.613 C 323.804 249.892,321.887 249.713,308.986 249.713 C 296.001 249.713,296.683 249.849,297.980 247.508 C 304.948 234.933,315.908 225.931,329.843 221.337 C 331.773 220.701,333.619 220.180,333.945 220.180 C 334.500 220.180,337.654 214.350,337.654 213.323 C 337.654 213.119,337.784 212.696,337.944 212.383 C 338.686 210.924,340.110 206.425,340.877 203.117 C 343.170 193.231,343.089 181.863,340.648 170.960 C 340.228 169.086,338.405 163.431,337.977 162.679 C 337.799 162.365,337.654 161.959,337.654 161.775 C 337.654 161.591,336.769 159.632,335.688 157.422 C 327.289 140.250,313.615 127.452,294.996 119.334 C 292.698 118.332,288.602 116.817,288.190 116.817 C 287.958 116.817,287.512 116.688,287.198 116.529 C 286.377 116.114,284.829 115.687,280.558 114.697 C 274.503 113.294,274.050 113.208,272.738 113.208 C 272.052 113.208,270.688 113.072,269.708 112.906 C 267.160 112.476,259.783 112.315,254.799 112.582 M269.468 137.664 C 289.274 140.639,305.361 152.735,311.567 169.319 C 311.871 170.131,312.237 171.091,312.380 171.452 C 313.227 173.587,313.953 177.233,314.390 181.551 C 315.896 196.398,308.923 211.876,296.308 221.691 C 293.033 224.240,291.647 225.140,287.449 227.447 C 280.838 231.079,270.845 233.406,261.854 233.406 C 250.056 233.406,239.360 230.179,230.037 223.808 C 214.399 213.120,205.910 193.320,209.841 176.702 C 210.140 175.439,210.503 173.888,210.647 173.257 C 210.952 171.926,211.086 171.540,212.245 168.663 C 214.812 162.290,219.526 155.569,224.377 151.364 C 225.581 150.321,226.858 149.206,227.214 148.887 C 236.619 140.479,255.254 135.529,269.468 137.664 M356.212 250.442 C 355.762 251.085,355.701 253.822,355.701 273.503 C 355.701 293.183,355.762 295.921,356.212 296.564 L 356.723 297.293 375.838 297.293 C 392.137 297.293,395.046 297.364,395.589 297.775 C 396.323 298.329,397.375 298.432,397.375 297.949 C 397.375 297.769,397.681 297.621,398.055 297.621 C 399.648 297.621,399.836 296.926,399.836 291.020 L 399.836 285.522 398.876 284.521 L 397.916 283.519 385.915 283.433 L 373.913 283.347 373.749 266.846 C 373.608 252.657,373.516 250.301,373.093 250.034 C 371.906 249.284,356.767 249.650,356.212 250.442 M320.010 263.249 C 323.552 264.303,324.201 265.911,324.198 273.626 C 324.195 282.930,323.103 284.167,314.892 284.167 L 311.075 284.167 311.075 273.503 L 311.075 262.838 314.853 262.838 C 316.932 262.838,319.252 263.023,320.010 263.249 " stroke="none" fill="#f9f9f9" fill-rule="evenodd"></path><path id="path1" d="M257.471 137.716 C 257.264 137.923,253.374 138.575,249.713 139.016 C 248.901 139.114,248.096 139.327,247.925 139.490 C 247.753 139.653,247.126 139.787,246.530 139.787 C 245.934 139.787,245.447 139.934,245.447 140.115 C 245.447 140.295,244.930 140.443,244.299 140.443 C 243.667 140.443,243.150 140.575,243.150 140.736 C 243.150 140.896,242.754 141.128,242.270 141.249 C 241.786 141.371,240.798 141.756,240.075 142.105 C 239.352 142.454,238.567 142.740,238.330 142.740 C 238.094 142.740,237.900 142.888,237.900 143.068 C 237.900 143.249,237.686 143.396,237.424 143.396 C 237.162 143.396,236.166 143.847,235.209 144.399 C 234.253 144.950,233.212 145.484,232.896 145.585 C 232.580 145.687,232.322 145.900,232.322 146.060 C 232.322 146.219,232.163 146.349,231.970 146.349 C 231.777 146.349,231.422 146.534,231.182 146.760 C 230.941 146.985,229.887 147.760,228.838 148.482 C 226.640 149.996,220.065 156.428,218.862 158.242 C 218.414 158.918,217.937 159.472,217.801 159.473 C 217.666 159.474,217.555 159.626,217.555 159.810 C 217.555 160.111,216.011 162.677,215.585 163.084 C 215.491 163.175,215.063 163.987,214.635 164.889 C 214.206 165.792,213.507 167.245,213.081 168.119 C 212.654 168.993,212.305 169.990,212.305 170.334 C 212.305 170.678,212.158 170.960,211.977 170.960 C 211.797 170.960,211.649 171.394,211.649 171.925 C 211.649 172.456,211.517 172.972,211.355 173.071 C 211.194 173.171,210.980 173.807,210.880 174.485 C 210.300 178.405,209.995 180.107,209.692 181.130 C 209.256 182.599,209.250 188.290,209.683 189.533 C 209.865 190.056,210.168 191.518,210.356 192.781 C 210.544 194.044,210.779 195.632,210.879 196.308 C 210.980 196.985,211.194 197.539,211.355 197.539 C 211.517 197.539,211.649 197.973,211.649 198.504 C 211.649 199.035,211.797 199.560,211.977 199.672 C 212.158 199.783,212.305 200.128,212.305 200.438 C 212.305 200.748,212.970 202.315,213.782 203.920 C 214.594 205.524,215.258 206.971,215.258 207.134 C 215.258 207.297,215.443 207.636,215.669 207.887 C 216.402 208.705,216.727 209.172,217.198 210.085 C 217.452 210.578,217.900 211.242,218.192 211.561 C 218.484 211.880,219.162 212.732,219.698 213.454 C 220.874 215.039,225.407 219.559,227.041 220.776 C 227.690 221.258,228.294 221.733,228.384 221.830 C 228.894 222.379,231.975 224.446,232.284 224.446 C 232.485 224.446,232.650 224.594,232.650 224.774 C 232.650 224.955,232.871 225.103,233.142 225.103 C 233.413 225.103,233.634 225.250,233.634 225.431 C 233.634 225.611,233.844 225.759,234.100 225.759 C 234.685 225.759,236.583 226.823,236.585 227.153 C 236.586 227.289,236.811 227.400,237.084 227.400 C 237.357 227.400,237.837 227.530,238.150 227.689 C 238.464 227.849,239.089 228.129,239.541 228.312 C 239.992 228.495,240.878 228.865,241.509 229.133 C 242.141 229.401,243.249 229.804,243.970 230.027 C 244.692 230.251,245.539 230.563,245.853 230.721 C 246.166 230.879,246.838 231.009,247.346 231.009 C 247.854 231.009,248.409 231.142,248.581 231.305 C 248.752 231.468,249.557 231.685,250.369 231.787 C 259.210 232.894,262.932 233.012,268.417 232.359 C 270.312 232.133,272.527 231.871,273.339 231.775 C 274.151 231.680,274.956 231.468,275.127 231.305 C 275.299 231.142,275.917 231.009,276.502 231.009 C 277.087 231.009,277.657 230.861,277.769 230.681 C 277.880 230.500,278.221 230.353,278.526 230.354 C 279.040 230.355,282.611 229.028,283.917 228.351 C 284.230 228.189,284.710 228.056,284.983 228.056 C 285.256 228.056,285.480 227.908,285.480 227.728 C 285.480 227.547,285.704 227.400,285.979 227.400 C 286.253 227.400,287.028 227.056,287.701 226.636 C 288.375 226.215,289.405 225.662,289.992 225.407 C 290.578 225.151,291.058 224.831,291.058 224.694 C 291.058 224.558,291.212 224.446,291.400 224.446 C 291.588 224.446,291.921 224.297,292.139 224.114 C 293.593 222.894,295.535 221.499,295.783 221.496 C 296.268 221.491,304.764 212.734,304.997 211.999 C 305.115 211.626,305.350 211.321,305.518 211.321 C 305.687 211.321,305.824 211.167,305.824 210.979 C 305.824 210.791,305.974 210.458,306.157 210.240 C 306.845 209.421,308.121 207.342,308.121 207.040 C 308.121 206.868,308.269 206.727,308.450 206.727 C 308.630 206.727,308.778 206.432,308.778 206.071 C 308.778 205.710,308.925 205.414,309.106 205.414 C 309.286 205.414,309.432 205.230,309.429 205.004 C 309.424 204.658,310.068 203.194,311.448 200.415 C 311.604 200.101,311.731 199.474,311.731 199.020 C 311.731 198.566,311.879 198.195,312.059 198.195 C 312.240 198.195,312.387 197.708,312.387 197.112 C 312.387 196.517,312.520 195.889,312.682 195.718 C 312.994 195.388,313.124 194.534,313.709 188.972 C 314.134 184.934,313.467 175.909,312.682 175.078 C 312.520 174.906,312.387 174.288,312.387 173.703 C 312.387 173.118,312.240 172.548,312.059 172.436 C 311.879 172.325,311.731 171.799,311.731 171.269 C 311.731 170.738,311.583 170.304,311.403 170.304 C 311.222 170.304,311.075 170.068,311.075 169.780 C 311.075 169.492,310.867 168.864,310.613 168.385 C 310.359 167.906,309.764 166.680,309.292 165.659 C 306.592 159.832,299.839 151.866,294.736 148.488 C 293.976 147.986,293.355 147.464,293.355 147.329 C 293.355 147.193,293.097 146.995,292.781 146.889 C 292.177 146.686,291.351 146.216,288.510 144.463 C 287.560 143.876,286.665 143.396,286.521 143.396 C 286.268 143.396,283.874 142.347,282.844 141.785 C 282.567 141.634,281.866 141.407,281.285 141.279 C 280.705 141.151,280.230 140.911,280.230 140.745 C 280.230 140.579,279.795 140.443,279.265 140.443 C 278.734 140.443,278.208 140.295,278.097 140.115 C 277.985 139.934,277.415 139.787,276.831 139.787 C 276.246 139.787,275.627 139.654,275.455 139.492 C 275.284 139.330,274.553 139.113,273.831 139.009 C 273.109 138.905,271.164 138.631,269.508 138.401 C 267.853 138.171,266.388 137.871,266.254 137.736 C 265.948 137.427,257.779 137.409,257.471 137.716 M333.267 327.551 C 333.492 327.915,334.295 327.873,334.535 327.484 C 334.651 327.296,334.392 327.186,333.922 327.225 C 333.474 327.262,333.179 327.409,333.267 327.551 M357.670 327.551 C 357.670 327.914,358.576 327.874,358.806 327.501 C 358.911 327.332,358.698 327.216,358.334 327.243 C 357.969 327.271,357.670 327.409,357.670 327.551 " stroke="none" fill="#255484" fill-rule="evenodd"></path><path id="path2" d="M259.803 137.405 C 260.931 137.469,262.777 137.469,263.905 137.405 C 265.033 137.340,264.110 137.288,261.854 137.288 C 259.598 137.288,258.675 137.340,259.803 137.405 M253.158 137.845 C 239.235 140.240,228.411 146.237,219.740 156.361 C 216.271 160.412,212.411 167.439,211.090 172.108 C 209.964 176.089,209.344 179.219,209.380 180.747 L 209.408 181.952 209.717 180.968 C 209.993 180.088,210.325 178.237,210.880 174.485 C 210.980 173.807,211.194 173.171,211.355 173.071 C 211.517 172.972,211.649 172.456,211.649 171.925 C 211.649 171.394,211.797 170.960,211.977 170.960 C 212.158 170.960,212.305 170.678,212.305 170.334 C 212.305 169.990,212.654 168.993,213.081 168.119 C 213.507 167.245,214.206 165.792,214.635 164.889 C 215.063 163.987,215.491 163.175,215.585 163.084 C 216.011 162.677,217.555 160.111,217.555 159.810 C 217.555 159.626,217.666 159.474,217.801 159.473 C 217.937 159.472,218.414 158.918,218.862 158.242 C 220.065 156.428,226.640 149.996,228.838 148.482 C 229.887 147.760,230.941 146.985,231.182 146.760 C 231.422 146.534,231.777 146.349,231.970 146.349 C 232.163 146.349,232.322 146.219,232.322 146.060 C 232.322 145.900,232.580 145.687,232.896 145.585 C 233.212 145.484,234.253 144.950,235.209 144.399 C 236.166 143.847,237.162 143.396,237.424 143.396 C 237.686 143.396,237.900 143.249,237.900 143.068 C 237.900 142.888,238.094 142.740,238.330 142.740 C 238.567 142.740,239.352 142.454,240.075 142.105 C 240.798 141.756,241.786 141.371,242.270 141.249 C 242.754 141.128,243.150 140.896,243.150 140.736 C 243.150 140.575,243.667 140.443,244.299 140.443 C 244.930 140.443,245.447 140.295,245.447 140.115 C 245.447 139.934,245.934 139.787,246.530 139.787 C 247.126 139.787,247.753 139.653,247.925 139.490 C 248.096 139.327,248.901 139.114,249.713 139.016 C 253.374 138.575,257.264 137.923,257.471 137.716 C 257.772 137.415,255.213 137.492,253.158 137.845 M266.254 137.736 C 266.388 137.871,267.853 138.171,269.508 138.401 C 271.164 138.631,273.109 138.905,273.831 139.009 C 274.553 139.113,275.284 139.330,275.455 139.492 C 275.627 139.654,276.246 139.787,276.831 139.787 C 277.415 139.787,277.985 139.934,278.097 140.115 C 278.208 140.295,278.734 140.443,279.265 140.443 C 279.795 140.443,280.230 140.579,280.230 140.745 C 280.230 140.911,280.666 141.143,281.200 141.260 C 282.106 141.459,284.250 142.355,285.557 143.080 C 285.871 143.254,286.275 143.396,286.455 143.396 C 286.635 143.396,287.560 143.876,288.510 144.463 C 291.351 146.216,292.177 146.686,292.781 146.889 C 293.097 146.995,293.355 147.193,293.355 147.329 C 293.355 147.464,293.976 147.986,294.736 148.488 C 299.839 151.866,306.592 159.832,309.292 165.659 C 309.764 166.680,310.359 167.906,310.613 168.385 C 310.867 168.864,311.075 169.492,311.075 169.780 C 311.075 170.068,311.222 170.304,311.403 170.304 C 311.583 170.304,311.731 170.738,311.731 171.269 C 311.731 171.799,311.879 172.325,312.059 172.436 C 312.240 172.548,312.387 173.118,312.387 173.703 C 312.387 174.288,312.520 174.906,312.682 175.078 C 313.467 175.909,314.134 184.934,313.709 188.972 C 313.124 194.534,312.994 195.388,312.682 195.718 C 312.520 195.889,312.387 196.517,312.387 197.112 C 312.387 197.708,312.240 198.195,312.059 198.195 C 311.879 198.195,311.731 198.566,311.731 199.020 C 311.731 199.474,311.604 200.101,311.448 200.415 C 310.068 203.194,309.424 204.658,309.429 205.004 C 309.432 205.230,309.286 205.414,309.106 205.414 C 308.925 205.414,308.778 205.710,308.778 206.071 C 308.778 206.432,308.630 206.727,308.450 206.727 C 308.269 206.727,308.121 206.868,308.121 207.040 C 308.121 207.342,306.845 209.421,306.157 210.240 C 305.974 210.458,305.824 210.791,305.824 210.979 C 305.824 211.167,305.687 211.321,305.518 211.321 C 305.350 211.321,305.115 211.626,304.997 211.999 C 304.764 212.734,296.268 221.491,295.783 221.496 C 295.535 221.499,293.593 222.894,292.139 224.114 C 291.921 224.297,291.588 224.446,291.400 224.446 C 291.212 224.446,291.058 224.558,291.058 224.694 C 291.058 224.831,290.578 225.151,289.992 225.407 C 289.405 225.662,288.375 226.215,287.701 226.636 C 287.028 227.056,286.253 227.400,285.979 227.400 C 285.704 227.400,285.480 227.547,285.480 227.728 C 285.480 227.908,285.256 228.056,284.983 228.056 C 284.710 228.056,284.230 228.189,283.917 228.351 C 282.611 229.028,279.040 230.355,278.526 230.354 C 278.221 230.353,277.880 230.500,277.769 230.681 C 277.657 230.861,277.087 231.009,276.502 231.009 C 275.917 231.009,275.299 231.142,275.127 231.305 C 274.956 231.468,274.151 231.680,273.339 231.775 C 272.527 231.871,270.312 232.133,268.417 232.359 C 262.932 233.012,259.210 232.894,250.369 231.787 C 249.557 231.685,248.752 231.468,248.581 231.305 C 248.409 231.142,247.854 231.009,247.346 231.009 C 246.838 231.009,246.166 230.879,245.853 230.721 C 245.539 230.563,244.692 230.251,243.970 230.027 C 243.249 229.804,242.141 229.401,241.509 229.133 C 240.878 228.865,239.992 228.495,239.541 228.312 C 239.089 228.129,238.464 227.849,238.150 227.689 C 237.837 227.530,237.357 227.400,237.084 227.400 C 236.811 227.400,236.586 227.289,236.585 227.153 C 236.583 226.823,234.685 225.759,234.100 225.759 C 233.844 225.759,233.634 225.611,233.634 225.431 C 233.634 225.250,233.413 225.103,233.142 225.103 C 232.871 225.103,232.650 224.955,232.650 224.774 C 232.650 224.594,232.485 224.446,232.284 224.446 C 231.975 224.446,228.894 222.379,228.384 221.830 C 228.294 221.733,227.690 221.258,227.041 220.776 C 225.407 219.559,220.874 215.039,219.698 213.454 C 219.162 212.732,218.484 211.880,218.192 211.561 C 217.900 211.242,217.452 210.578,217.198 210.085 C 216.943 209.591,216.587 209.008,216.407 208.789 C 216.226 208.570,215.894 208.170,215.669 207.901 C 215.443 207.631,215.258 207.282,215.258 207.124 C 215.258 206.966,214.594 205.524,213.782 203.920 C 212.970 202.315,212.305 200.748,212.305 200.438 C 212.305 200.128,212.158 199.783,211.977 199.672 C 211.797 199.560,211.649 199.035,211.649 198.504 C 211.649 197.973,211.517 197.539,211.355 197.539 C 211.194 197.539,210.979 196.985,210.879 196.308 C 210.779 195.632,210.540 194.016,210.349 192.719 C 209.894 189.625,209.403 188.303,209.373 190.093 C 209.336 192.310,211.063 199.137,212.477 202.363 C 217.333 213.438,225.578 221.988,236.751 227.536 C 244.744 231.504,252.382 233.272,261.627 233.294 C 269.257 233.313,277.442 231.810,283.019 229.366 C 307.179 218.780,318.967 196.892,312.972 173.749 C 312.030 170.115,308.372 161.995,307.133 160.788 C 307.040 160.697,306.375 159.747,305.656 158.676 C 299.859 150.046,287.264 141.698,275.964 138.996 C 271.037 137.818,265.642 137.118,266.254 137.736 M209.145 185.398 C 209.145 187.293,209.199 188.068,209.266 187.121 C 209.332 186.173,209.332 184.623,209.266 183.675 C 209.199 182.728,209.145 183.503,209.145 185.398 M339.951 219.234 C 335.669 219.781,328.027 221.732,325.841 222.836 C 325.570 222.973,324.094 223.644,322.559 224.327 C 319.741 225.582,313.517 229.497,311.403 231.344 C 306.797 235.368,300.246 242.801,300.246 244.001 C 300.246 244.136,300.040 244.480,299.787 244.765 C 298.973 245.684,297.273 249.087,297.469 249.405 C 297.582 249.587,302.498 249.716,309.535 249.719 C 321.727 249.726,325.938 250.105,329.614 251.525 C 337.036 254.392,341.092 259.523,341.929 267.104 C 343.995 285.808,339.120 293.978,324.200 296.812 C 322.351 297.164,318.702 297.282,309.516 297.286 C 300.503 297.291,297.293 297.392,297.293 297.672 C 297.293 298.228,299.606 302.141,302.039 305.702 C 302.982 307.081,306.110 310.709,307.662 312.223 C 308.402 312.945,309.098 313.906,309.207 314.359 C 309.317 314.812,309.858 315.449,310.410 315.775 C 310.961 316.101,312.083 316.949,312.904 317.659 C 313.725 318.369,314.541 318.950,314.718 318.950 C 314.895 318.950,315.366 319.258,315.764 319.635 C 316.163 320.012,317.043 320.545,317.719 320.819 C 318.396 321.094,318.950 321.450,318.950 321.611 C 318.950 321.772,319.245 321.903,319.606 321.903 C 319.967 321.903,320.263 322.051,320.263 322.231 C 320.263 322.412,320.484 322.559,320.755 322.559 C 321.025 322.559,321.247 322.707,321.247 322.888 C 321.247 323.068,321.598 323.216,322.027 323.216 C 322.456 323.216,322.991 323.437,323.216 323.708 C 323.440 323.979,323.824 324.200,324.068 324.200 C 324.313 324.200,324.996 324.495,325.587 324.855 C 326.178 325.215,327.059 325.511,327.544 325.511 C 328.030 325.512,328.518 325.660,328.630 325.841 C 328.742 326.021,329.341 326.169,329.962 326.169 C 330.583 326.169,331.091 326.310,331.091 326.482 C 331.091 326.836,333.231 327.330,334.162 327.191 C 334.498 327.141,334.683 327.245,334.573 327.422 C 334.245 327.952,336.954 328.071,347.170 327.973 C 357.060 327.878,357.670 327.851,357.670 327.497 C 357.670 327.385,358.076 327.258,358.573 327.215 C 360.175 327.077,360.623 326.957,361.021 326.559 C 361.235 326.345,361.795 326.169,362.264 326.169 C 362.733 326.169,363.260 326.026,363.434 325.852 C 363.609 325.678,364.219 325.499,364.790 325.456 C 365.361 325.412,365.756 325.260,365.668 325.117 C 365.579 324.973,365.885 324.856,366.347 324.856 C 366.808 324.856,367.186 324.709,367.186 324.528 C 367.186 324.348,367.555 324.200,368.007 324.200 C 368.458 324.200,368.827 324.084,368.827 323.943 C 368.827 323.801,369.787 323.248,370.959 322.712 C 372.132 322.177,373.092 321.628,373.092 321.493 C 373.093 321.358,373.388 321.247,373.749 321.247 C 374.110 321.247,374.405 321.116,374.405 320.957 C 374.405 320.798,374.664 320.574,374.979 320.460 C 376.055 320.071,377.027 319.384,376.810 319.167 C 376.612 318.969,377.472 318.806,378.121 318.919 C 378.270 318.945,378.315 318.842,378.221 318.690 C 378.127 318.538,378.488 318.156,379.023 317.840 C 379.558 317.524,379.910 317.128,379.806 316.959 C 379.702 316.791,379.847 316.653,380.128 316.653 C 380.903 316.653,380.840 316.703,384.211 313.351 C 387.672 309.910,389.168 308.260,389.177 307.878 C 389.180 307.741,389.540 307.291,389.976 306.877 C 390.412 306.463,390.963 305.688,391.199 305.154 C 391.435 304.620,391.823 304.184,392.060 304.184 C 392.297 304.184,392.411 304.053,392.312 303.893 C 392.213 303.733,392.352 303.419,392.621 303.196 C 392.889 302.973,393.109 302.587,393.109 302.339 C 393.109 302.090,393.257 301.887,393.437 301.887 C 393.618 301.887,393.765 301.591,393.765 301.231 C 393.765 300.870,393.877 300.574,394.013 300.574 C 394.150 300.574,394.470 300.094,394.725 299.508 C 394.981 298.921,395.345 298.339,395.534 298.213 C 396.511 297.566,393.796 297.450,375.859 297.367 L 356.367 297.278 355.870 296.317 C 355.119 294.864,355.122 252.134,355.874 250.681 L 356.375 249.713 364.693 249.713 C 372.029 249.713,373.066 249.777,373.463 250.255 C 373.826 250.693,373.945 253.944,374.077 267.072 L 374.241 283.347 386.205 283.433 L 398.168 283.519 399.108 284.418 L 400.048 285.316 399.931 272.518 C 399.817 260.056,399.764 258.929,399.272 258.560 C 399.143 258.462,398.999 257.891,398.953 257.291 C 398.908 256.691,398.681 256.127,398.451 256.038 C 398.220 255.950,398.031 255.480,398.031 254.993 C 398.031 254.025,397.356 252.345,396.965 252.341 C 396.829 252.339,396.719 252.035,396.719 251.665 C 396.719 251.007,395.857 249.053,395.424 248.728 C 395.303 248.638,395.011 248.084,394.773 247.498 C 394.536 246.911,394.212 246.432,394.054 246.432 C 393.895 246.432,393.765 246.062,393.765 245.611 C 393.765 245.160,393.644 244.791,393.496 244.791 C 393.166 244.791,391.475 242.257,391.451 241.726 C 391.441 241.517,390.782 240.755,389.987 240.033 C 389.192 239.311,387.096 237.306,385.329 235.577 C 372.583 223.107,356.107 217.173,339.951 219.234 M311.224 263.252 C 311.136 263.479,311.104 268.241,311.152 273.834 L 311.239 284.003 314.028 284.111 C 322.511 284.440,324.195 282.695,324.198 273.566 C 324.201 266.139,323.386 264.332,319.573 263.318 C 317.306 262.714,311.448 262.668,311.224 263.252 M292.249 263.909 C 292.140 264.313,292.044 265.308,292.035 266.120 C 292.027 266.932,291.805 268.482,291.544 269.565 C 291.282 270.648,291.068 272.420,291.068 273.503 C 291.068 274.586,291.282 276.358,291.544 277.441 C 291.805 278.523,292.027 280.074,292.035 280.886 C 292.055 282.717,292.353 283.889,292.736 283.652 C 292.896 283.553,293.027 278.986,293.027 273.503 C 293.027 264.488,292.810 261.813,292.249 263.909 " stroke="none" fill="#24637b" fill-rule="evenodd"></path><path id="path3" d="M210.500 2.953 C 210.389 3.134,208.977 3.281,207.364 3.281 C 205.627 3.281,204.430 3.415,204.430 3.610 C 204.430 3.790,203.924 3.938,203.305 3.938 C 202.686 3.938,201.958 4.159,201.688 4.430 C 201.417 4.701,200.824 4.922,200.371 4.922 C 199.918 4.922,199.455 5.070,199.344 5.250 C 199.232 5.431,198.854 5.578,198.504 5.578 C 198.154 5.578,197.867 5.726,197.867 5.906 C 197.867 6.087,197.609 6.239,197.293 6.245 C 196.584 6.258,195.570 6.997,195.570 7.501 C 195.570 7.707,195.275 7.875,194.914 7.875 C 194.553 7.875,194.258 8.023,194.258 8.203 C 194.258 8.384,194.073 8.535,193.847 8.539 C 193.622 8.543,192.994 9.079,192.453 9.731 C 191.911 10.382,191.210 11.150,190.894 11.437 C 190.578 11.724,190.320 12.080,190.320 12.228 C 190.320 12.376,190.025 12.814,189.664 13.201 C 189.303 13.589,189.007 14.247,189.007 14.664 C 189.007 15.081,188.860 15.422,188.679 15.422 C 188.499 15.422,188.351 15.775,188.351 16.205 C 188.351 16.636,188.158 17.360,187.923 17.814 C 187.395 18.831,187.445 23.707,187.985 23.887 C 188.186 23.954,188.351 24.587,188.351 25.294 C 188.351 26.001,188.499 26.579,188.679 26.579 C 188.860 26.579,189.007 26.874,189.007 27.234 C 189.007 28.106,195.688 34.783,196.560 34.783 C 196.918 34.783,197.211 34.935,197.211 35.122 C 197.211 35.563,199.384 37.736,199.825 37.736 C 200.011 37.736,200.164 37.884,200.164 38.064 C 200.164 38.244,200.459 38.392,200.820 38.392 C 201.181 38.392,201.477 38.579,201.477 38.806 C 201.477 39.034,201.870 39.514,202.351 39.873 C 202.832 40.232,203.412 40.710,203.640 40.935 C 203.868 41.161,204.262 41.345,204.515 41.345 C 204.768 41.345,205.173 41.715,205.414 42.166 C 205.656 42.617,205.981 42.986,206.137 42.986 C 206.293 42.986,206.937 43.503,207.569 44.135 C 208.201 44.766,208.875 45.283,209.067 45.283 C 209.259 45.283,209.831 45.726,210.336 46.267 C 210.842 46.809,211.427 47.252,211.636 47.252 C 211.845 47.252,211.925 47.400,211.813 47.580 C 211.701 47.760,211.835 47.908,212.111 47.908 C 212.386 47.908,213.128 48.425,213.760 49.057 C 214.392 49.688,214.994 50.205,215.098 50.205 C 215.203 50.205,215.649 50.537,216.090 50.943 C 218.116 52.809,218.529 53.158,218.707 53.158 C 218.812 53.158,219.267 53.527,219.718 53.979 C 220.169 54.430,220.656 54.799,220.800 54.799 C 220.944 54.799,221.914 55.611,222.955 56.604 C 223.996 57.596,224.988 58.409,225.159 58.409 C 225.329 58.409,226.124 59.073,226.924 59.885 C 227.725 60.697,228.532 61.362,228.717 61.362 C 228.903 61.362,229.879 62.174,230.888 63.167 C 231.897 64.159,232.927 64.971,233.178 64.971 C 233.429 64.971,233.634 65.119,233.634 65.299 C 233.634 65.480,233.792 65.628,233.986 65.628 C 234.440 65.628,235.275 66.462,235.275 66.917 C 235.275 67.110,235.496 67.268,235.767 67.268 C 236.038 67.268,236.259 67.416,236.259 67.596 C 236.259 67.777,236.478 67.925,236.744 67.925 C 237.011 67.925,238.042 68.737,239.034 69.729 C 240.027 70.722,241.064 71.534,241.338 71.534 C 241.613 71.534,241.838 71.682,241.838 71.862 C 241.838 72.080,215.709 72.190,164.109 72.190 C 95.417 72.190,86.333 72.248,85.972 72.683 C 85.688 73.025,84.933 73.175,83.490 73.175 C 82.350 73.175,81.326 73.322,81.214 73.503 C 81.103 73.683,80.577 73.831,80.046 73.831 C 79.515 73.831,79.081 73.979,79.081 74.159 C 79.081 74.340,78.564 74.487,77.933 74.487 C 77.301 74.487,76.784 74.635,76.784 74.815 C 76.784 74.996,76.581 75.144,76.332 75.144 C 76.084 75.144,75.696 75.365,75.472 75.636 C 75.247 75.906,74.786 76.128,74.447 76.128 C 74.108 76.128,73.831 76.276,73.831 76.456 C 73.831 76.637,73.573 76.784,73.257 76.785 C 72.941 76.785,72.257 77.151,71.737 77.598 C 71.218 78.045,70.664 78.331,70.507 78.234 C 70.350 78.137,70.221 78.288,70.221 78.570 C 70.221 78.851,70.087 79.081,69.922 79.081 C 69.580 79.081,64.315 84.162,64.315 84.491 C 64.315 84.609,64.092 84.929,63.820 85.202 C 63.547 85.474,63.408 85.833,63.511 85.999 C 63.614 86.164,63.467 86.300,63.186 86.300 C 62.893 86.300,62.674 86.581,62.674 86.957 C 62.674 87.317,62.527 87.613,62.346 87.613 C 62.166 87.613,62.018 87.982,62.018 88.433 C 62.018 88.884,61.870 89.253,61.690 89.253 C 61.509 89.253,61.362 89.918,61.362 90.730 C 61.362 91.542,61.214 92.207,61.034 92.207 C 60.596 92.207,60.596 99.647,61.034 99.918 C 61.214 100.030,61.362 100.629,61.362 101.250 C 61.362 101.871,61.509 102.379,61.690 102.379 C 61.870 102.379,62.018 102.606,62.018 102.883 C 62.018 103.464,62.869 104.862,63.822 105.847 C 64.183 106.221,64.773 106.922,65.131 107.406 C 65.490 107.890,65.970 108.285,66.198 108.285 C 66.426 108.285,66.612 108.433,66.612 108.614 C 66.612 108.794,66.840 108.942,67.119 108.942 C 67.397 108.942,68.023 109.311,68.510 109.762 C 68.996 110.213,69.581 110.582,69.808 110.582 C 70.035 110.582,70.221 110.730,70.221 110.911 C 70.221 111.091,70.656 111.239,71.187 111.239 C 71.717 111.239,72.243 111.386,72.354 111.567 C 72.466 111.747,72.991 111.895,73.522 111.895 C 74.053 111.895,74.487 112.043,74.487 112.223 C 74.487 112.417,75.681 112.551,77.413 112.551 C 79.462 112.551,80.380 112.674,80.477 112.961 C 80.653 113.485,105.263 113.408,105.789 112.882 C 106.390 112.281,157.506 112.441,157.506 113.043 C 157.506 113.353,157.194 113.536,156.666 113.536 C 156.190 113.536,155.915 113.678,156.030 113.864 C 156.141 114.044,156.035 114.192,155.793 114.192 C 155.552 114.192,155.141 114.487,154.881 114.848 C 154.621 115.209,154.250 115.505,154.057 115.505 C 153.863 115.505,153.157 116.021,152.488 116.653 C 151.818 117.285,151.149 117.801,151.001 117.801 C 150.854 117.801,150.039 118.466,149.192 119.278 C 148.344 120.090,147.483 120.755,147.279 120.755 C 147.075 120.755,146.440 121.235,145.868 121.821 C 145.296 122.408,144.454 123.085,143.998 123.327 C 142.813 123.953,141.427 125.196,141.427 125.633 C 141.427 125.838,141.161 126.005,140.835 126.005 C 140.510 126.005,139.679 126.522,138.989 127.153 C 138.300 127.785,137.592 128.302,137.416 128.302 C 137.240 128.302,136.683 128.745,136.177 129.286 C 135.671 129.828,135.078 130.271,134.858 130.271 C 134.638 130.271,133.821 130.935,133.043 131.747 C 132.265 132.559,131.386 133.224,131.090 133.224 C 130.560 133.224,129.614 133.960,129.614 134.372 C 129.614 134.835,128.637 135.521,127.978 135.521 C 127.593 135.521,127.370 135.669,127.482 135.849 C 127.593 136.030,127.489 136.177,127.251 136.177 C 127.012 136.177,126.540 136.546,126.201 136.998 C 125.862 137.449,125.384 137.818,125.139 137.818 C 124.893 137.818,124.692 137.966,124.692 138.146 C 124.692 138.326,124.503 138.474,124.273 138.474 C 124.042 138.474,123.640 138.769,123.380 139.130 C 123.120 139.491,122.734 139.787,122.522 139.787 C 122.311 139.787,122.052 140.008,121.949 140.279 C 121.845 140.550,121.606 140.771,121.418 140.771 C 121.231 140.771,120.613 141.214,120.047 141.756 C 119.480 142.297,118.812 142.740,118.563 142.740 C 118.313 142.740,118.024 142.961,117.921 143.230 C 117.817 143.500,117.601 143.639,117.439 143.539 C 117.277 143.439,117.145 143.524,117.145 143.728 C 117.145 144.199,116.319 145.037,115.856 145.037 C 115.663 145.037,115.505 145.149,115.505 145.285 C 115.505 145.421,115.062 145.729,114.520 145.969 C 113.979 146.208,113.536 146.614,113.536 146.869 C 113.536 147.125,113.314 147.334,113.043 147.334 C 112.773 147.334,112.551 147.482,112.551 147.662 C 112.551 147.842,112.350 147.990,112.105 147.990 C 111.859 147.990,111.111 148.507,110.441 149.139 C 109.771 149.770,109.071 150.287,108.886 150.287 C 108.701 150.287,108.135 150.730,107.629 151.272 C 107.123 151.813,106.615 152.256,106.499 152.256 C 106.268 152.256,105.712 152.692,104.511 153.815 C 104.077 154.221,103.567 154.553,103.378 154.553 C 103.190 154.553,103.035 154.665,103.035 154.801 C 103.035 154.937,102.592 155.245,102.051 155.485 C 101.509 155.724,101.066 156.130,101.066 156.385 C 101.066 156.641,100.845 156.850,100.574 156.850 C 100.304 156.850,100.082 156.998,100.082 157.178 C 100.082 157.358,99.874 157.506,99.620 157.506 C 99.366 157.506,98.474 158.171,97.639 158.983 C 96.803 159.795,95.965 160.459,95.776 160.459 C 95.588 160.459,94.931 160.976,94.318 161.608 C 93.705 162.240,93.011 162.756,92.777 162.756 C 92.543 162.756,92.139 163.052,91.879 163.413 C 91.618 163.774,91.284 164.069,91.135 164.069 C 90.986 164.069,90.509 164.401,90.075 164.807 C 88.813 165.987,88.315 166.366,88.027 166.366 C 87.879 166.366,87.545 166.661,87.285 167.022 C 87.025 167.383,86.549 167.678,86.228 167.678 C 85.907 167.678,85.644 167.909,85.644 168.190 C 85.644 168.471,85.515 168.622,85.357 168.524 C 85.199 168.427,84.795 168.713,84.459 169.161 C 84.123 169.609,83.587 169.975,83.269 169.975 C 82.951 169.975,82.691 170.098,82.691 170.248 C 82.691 170.398,82.322 170.718,81.870 170.960 C 81.419 171.201,81.050 171.532,81.050 171.695 C 81.050 172.171,80.157 172.929,79.597 172.929 C 79.313 172.929,79.081 173.051,79.081 173.201 C 79.081 173.351,78.712 173.672,78.261 173.913 C 77.810 174.155,77.441 174.549,77.441 174.789 C 77.441 175.029,77.208 175.226,76.925 175.226 C 76.641 175.226,76.223 175.410,75.995 175.636 C 75.767 175.861,75.170 176.341,74.669 176.702 C 74.168 177.063,73.564 177.543,73.326 177.769 C 73.088 177.994,72.795 178.179,72.674 178.179 C 72.553 178.179,72.040 178.622,71.534 179.163 C 71.028 179.705,70.433 180.148,70.211 180.148 C 69.989 180.148,69.319 180.664,68.724 181.296 C 68.128 181.928,67.409 182.445,67.126 182.445 C 66.843 182.445,66.612 182.592,66.612 182.773 C 66.612 182.953,66.454 183.101,66.260 183.101 C 65.806 183.101,64.971 183.936,64.971 184.390 C 64.971 184.583,64.676 184.742,64.315 184.742 C 63.954 184.742,63.659 184.889,63.659 185.070 C 63.659 185.250,63.504 185.398,63.316 185.398 C 62.870 185.398,61.362 186.906,61.362 187.352 C 61.362 187.540,61.103 187.696,60.788 187.696 C 60.472 187.697,59.770 188.111,59.229 188.617 C 58.687 189.122,57.986 189.634,57.670 189.753 C 57.354 189.873,57.096 190.123,57.096 190.310 C 57.096 190.496,56.934 190.648,56.735 190.648 C 56.537 190.648,55.961 191.091,55.455 191.632 C 54.950 192.174,54.404 192.617,54.244 192.617 C 54.083 192.617,53.403 193.134,52.734 193.765 C 52.064 194.397,51.415 194.914,51.291 194.914 C 50.803 194.914,48.897 196.415,48.895 196.801 C 48.894 197.026,48.597 197.211,48.236 197.211 C 47.875 197.211,47.580 197.358,47.580 197.539 C 47.580 197.719,47.426 197.867,47.237 197.867 C 46.792 197.867,45.283 199.376,45.283 199.821 C 45.283 200.010,45.017 200.164,44.691 200.164 C 44.365 200.164,43.534 200.681,42.845 201.313 C 42.155 201.944,41.379 202.461,41.121 202.461 C 40.862 202.461,40.742 202.609,40.853 202.789 C 40.965 202.970,40.893 203.117,40.694 203.117 C 40.494 203.117,39.962 203.486,39.511 203.938 C 39.060 204.389,38.580 204.758,38.446 204.758 C 38.312 204.758,37.549 205.349,36.751 206.071 C 35.954 206.792,35.100 207.383,34.854 207.383 C 34.313 207.383,33.470 208.180,33.470 208.692 C 33.470 208.896,33.322 208.971,33.142 208.860 C 32.961 208.748,32.814 208.887,32.814 209.168 C 32.814 209.450,32.537 209.680,32.199 209.680 C 31.860 209.680,30.890 210.345,30.042 211.157 C 29.195 211.969,28.323 212.633,28.105 212.633 C 27.887 212.633,27.496 212.929,27.235 213.290 C 26.975 213.651,26.641 213.946,26.493 213.946 C 26.180 213.946,25.660 214.357,24.111 215.833 C 23.495 216.419,22.802 216.904,22.570 216.910 C 22.077 216.922,21.001 217.687,21.001 218.025 C 21.001 218.384,20.107 219.196,19.712 219.196 C 19.518 219.196,19.360 219.308,19.360 219.444 C 19.360 219.581,18.917 219.888,18.376 220.128 C 17.834 220.368,17.391 220.773,17.391 221.028 C 17.391 221.284,17.236 221.493,17.047 221.493 C 16.474 221.493,11.485 226.775,11.485 227.381 C 11.485 227.691,11.116 228.142,10.664 228.384 C 10.213 228.625,9.844 229.019,9.844 229.260 C 9.844 229.500,9.696 229.696,9.516 229.696 C 9.336 229.696,9.188 229.992,9.188 230.353 C 9.188 230.714,9.040 231.009,8.860 231.009 C 8.679 231.009,8.532 231.292,8.532 231.638 C 8.532 231.984,8.377 232.318,8.189 232.381 C 8.000 232.444,7.822 232.822,7.792 233.220 C 7.762 233.619,7.547 234.018,7.314 234.107 C 7.081 234.197,6.891 234.644,6.891 235.100 C 6.891 235.557,6.743 235.931,6.563 235.931 C 6.382 235.931,6.235 236.448,6.235 237.080 C 6.235 237.711,6.087 238.228,5.906 238.228 C 5.726 238.228,5.578 238.893,5.578 239.705 C 5.578 240.517,5.431 241.181,5.250 241.181 C 5.048 241.181,4.922 242.877,4.922 245.611 C 4.922 248.346,5.048 250.041,5.250 250.041 C 5.431 250.041,5.578 250.623,5.578 251.334 C 5.578 252.045,5.726 252.719,5.906 252.830 C 6.087 252.942,6.235 253.467,6.235 253.998 C 6.235 254.529,6.382 254.963,6.563 254.963 C 6.743 254.963,6.891 255.316,6.891 255.748 C 6.891 256.180,7.112 256.619,7.383 256.722 C 7.654 256.826,7.875 257.137,7.875 257.414 C 7.875 257.690,8.023 257.916,8.203 257.916 C 8.384 257.916,8.532 258.071,8.532 258.259 C 8.532 258.930,12.771 263.167,13.442 263.167 C 13.629 263.167,13.782 263.314,13.782 263.495 C 13.782 263.675,14.010 263.823,14.288 263.823 C 14.567 263.823,15.193 264.192,15.680 264.643 C 16.166 265.094,16.898 265.463,17.306 265.463 C 17.714 265.463,18.048 265.611,18.048 265.792 C 18.048 265.972,18.564 266.120,19.196 266.120 C 19.828 266.120,20.345 266.267,20.345 266.448 C 20.345 266.628,21.009 266.776,21.821 266.776 C 22.633 266.776,23.298 266.924,23.298 267.104 C 23.298 267.307,25.048 267.432,27.892 267.432 C 30.736 267.432,32.486 267.307,32.486 267.104 C 32.486 266.922,33.361 266.776,34.454 266.776 C 35.548 266.776,36.423 266.630,36.423 266.448 C 36.423 266.267,36.866 266.120,37.408 266.120 C 37.949 266.120,38.392 265.972,38.392 265.792 C 38.392 265.611,38.909 265.463,39.541 265.463 C 40.343 265.463,40.689 265.315,40.689 264.971 C 40.689 264.665,40.999 264.479,41.509 264.479 C 41.961 264.479,42.330 264.331,42.330 264.151 C 42.330 263.970,42.625 263.823,42.986 263.823 C 43.347 263.823,43.642 263.675,43.642 263.495 C 43.642 263.314,43.929 263.167,44.279 263.167 C 44.630 263.167,45.007 263.019,45.119 262.838 C 45.230 262.658,45.545 262.510,45.818 262.510 C 46.391 262.510,47.252 261.737,47.252 261.221 C 47.252 261.028,47.630 260.870,48.092 260.870 C 48.568 260.870,48.843 260.728,48.728 260.541 C 48.617 260.361,48.689 260.213,48.888 260.213 C 49.087 260.213,49.620 259.844,50.071 259.393 C 50.522 258.942,51.016 258.573,51.168 258.573 C 51.320 258.573,52.283 257.760,53.308 256.768 C 54.333 255.775,55.272 254.963,55.395 254.962 C 55.519 254.962,56.136 254.519,56.768 253.979 C 57.400 253.438,58.027 252.995,58.162 252.995 C 58.298 252.995,58.409 252.773,58.409 252.502 C 58.409 252.231,58.671 252.010,58.992 252.010 C 59.313 252.010,59.789 251.715,60.049 251.354 C 60.309 250.993,60.644 250.697,60.793 250.697 C 61.184 250.697,62.674 249.149,62.674 248.743 C 62.674 248.555,62.970 248.400,63.331 248.400 C 63.692 248.400,63.987 248.253,63.987 248.072 C 63.987 247.892,64.141 247.744,64.330 247.744 C 64.775 247.744,66.284 246.236,66.284 245.790 C 66.284 245.601,66.579 245.447,66.940 245.447 C 67.301 245.447,67.596 245.299,67.596 245.119 C 67.596 244.938,67.757 244.791,67.954 244.791 C 68.150 244.791,68.957 244.126,69.746 243.314 C 70.536 242.502,71.376 241.838,71.613 241.838 C 71.851 241.838,72.258 241.542,72.518 241.181 C 72.779 240.820,73.180 240.525,73.411 240.525 C 73.642 240.525,73.831 240.371,73.831 240.182 C 73.831 239.700,75.354 238.230,75.867 238.218 C 76.357 238.206,77.441 237.443,77.441 237.111 C 77.441 236.683,79.053 235.275,79.542 235.275 C 79.812 235.275,80.184 235.016,80.367 234.701 C 80.551 234.385,80.706 234.248,80.712 234.396 C 80.725 234.759,81.706 233.761,81.706 233.385 C 81.706 233.222,82.075 232.891,82.527 232.650 C 82.978 232.408,83.347 232.088,83.347 231.938 C 83.347 231.788,83.532 231.665,83.758 231.665 C 83.985 231.665,85.022 230.853,86.063 229.861 C 87.104 228.868,88.097 228.056,88.268 228.056 C 88.440 228.056,89.244 227.391,90.057 226.579 C 90.869 225.767,91.680 225.103,91.859 225.103 C 92.038 225.103,92.702 224.586,93.333 223.954 C 93.965 223.322,94.571 222.806,94.680 222.806 C 94.975 222.806,95.816 221.910,95.816 221.597 C 95.816 221.447,96.230 221.142,96.735 220.919 C 97.852 220.424,100.082 218.427,100.082 217.921 C 100.082 217.720,100.460 217.555,100.922 217.555 C 101.398 217.555,101.674 217.413,101.559 217.227 C 101.447 217.047,101.519 216.899,101.718 216.899 C 102.178 216.899,103.692 215.401,103.692 214.945 C 103.692 214.757,103.965 214.602,104.299 214.602 C 104.633 214.602,105.370 214.159,105.937 213.618 C 106.503 213.076,107.116 212.633,107.298 212.633 C 107.480 212.633,107.629 212.475,107.629 212.282 C 107.629 211.759,108.493 210.993,109.082 210.993 C 109.366 210.993,109.598 210.870,109.598 210.720 C 109.598 210.570,109.967 210.250,110.418 210.008 C 110.870 209.767,111.239 209.436,111.239 209.273 C 111.239 208.874,111.880 208.296,112.912 207.764 C 114.100 207.153,115.505 205.903,115.505 205.458 C 115.505 205.254,115.726 205.086,115.997 205.086 C 116.267 205.086,116.489 204.938,116.489 204.758 C 116.489 204.578,116.674 204.430,116.899 204.429 C 117.443 204.429,119.114 202.977,119.114 202.505 C 119.114 202.300,119.303 202.133,119.534 202.133 C 119.765 202.133,120.166 201.838,120.427 201.477 C 120.687 201.116,121.106 200.820,121.359 200.820 C 121.611 200.820,122.455 200.156,123.233 199.344 C 125.008 197.491,125.021 197.493,125.021 199.672 C 125.021 200.664,124.873 201.477,124.692 201.477 C 124.247 201.477,124.247 214.163,124.692 214.438 C 124.873 214.550,125.021 215.744,125.021 217.093 C 125.021 218.970,125.136 219.589,125.513 219.734 C 125.866 219.869,126.005 220.422,126.005 221.692 C 126.005 222.666,126.153 223.462,126.333 223.462 C 126.514 223.462,126.661 224.191,126.661 225.083 C 126.661 225.975,126.809 226.796,126.989 226.907 C 127.170 227.019,127.317 227.766,127.317 228.567 C 127.317 229.369,127.465 230.025,127.646 230.025 C 127.826 230.025,127.974 230.541,127.974 231.173 C 127.974 231.975,128.122 232.322,128.466 232.322 C 128.810 232.322,128.958 232.668,128.958 233.470 C 128.958 234.102,129.106 234.619,129.286 234.619 C 129.467 234.619,129.614 235.062,129.614 235.603 C 129.614 236.144,129.762 236.587,129.943 236.587 C 130.123 236.587,130.271 237.022,130.271 237.552 C 130.271 238.083,130.418 238.609,130.599 238.720 C 130.779 238.832,130.927 239.199,130.927 239.537 C 130.927 239.874,131.148 240.371,131.419 240.642 C 131.690 240.913,131.911 241.440,131.911 241.814 C 131.911 242.188,132.059 242.494,132.240 242.494 C 132.420 242.494,132.568 242.863,132.568 243.314 C 132.568 243.765,132.715 244.135,132.896 244.135 C 133.076 244.135,133.224 244.495,133.224 244.936 C 133.224 245.376,133.372 245.828,133.552 245.939 C 133.733 246.051,133.880 246.503,133.880 246.943 C 133.880 247.384,134.028 247.744,134.208 247.744 C 134.389 247.744,134.537 247.947,134.537 248.196 C 134.537 248.445,134.758 248.832,135.029 249.057 C 135.299 249.281,135.521 249.742,135.521 250.081 C 135.521 250.420,135.669 250.697,135.849 250.697 C 136.030 250.697,136.177 250.993,136.177 251.354 C 136.177 251.715,136.325 252.010,136.505 252.010 C 136.686 252.010,136.833 252.316,136.833 252.690 C 136.833 253.063,137.018 253.575,137.244 253.827 C 138.217 254.912,138.474 255.284,138.474 255.606 C 138.474 255.794,138.622 255.947,138.802 255.947 C 138.983 255.947,139.130 256.243,139.130 256.604 C 139.130 256.965,139.278 257.260,139.459 257.260 C 139.639 257.260,139.787 257.555,139.787 257.916 C 139.787 258.277,139.934 258.573,140.115 258.573 C 140.295 258.573,140.443 258.787,140.443 259.050 C 140.443 259.312,140.812 259.896,141.263 260.348 C 141.715 260.799,142.084 261.359,142.084 261.593 C 142.084 261.827,142.450 262.443,142.897 262.963 C 143.344 263.483,143.631 264.037,143.534 264.194 C 143.437 264.351,143.588 264.479,143.869 264.479 C 144.150 264.479,144.381 264.701,144.381 264.971 C 144.381 265.242,144.528 265.463,144.709 265.463 C 144.889 265.463,145.037 265.726,145.037 266.047 C 145.037 266.368,145.332 266.844,145.693 267.104 C 146.054 267.364,146.349 267.698,146.349 267.847 C 146.349 268.135,146.728 268.632,147.908 269.894 C 148.314 270.329,148.646 270.775,148.646 270.886 C 148.646 270.998,148.831 271.285,149.057 271.524 C 149.282 271.764,149.910 272.511,150.451 273.184 C 152.080 275.209,153.155 276.292,153.536 276.292 C 153.734 276.292,153.897 276.559,153.897 276.884 C 153.897 277.547,155.916 279.902,156.484 279.902 C 156.685 279.902,156.850 280.054,156.850 280.241 C 156.850 280.682,159.023 282.855,159.464 282.855 C 159.651 282.855,159.803 283.007,159.803 283.194 C 159.803 283.552,161.938 285.808,162.277 285.808 C 162.607 285.808,163.413 286.722,163.413 287.097 C 163.413 287.291,163.643 287.449,163.924 287.449 C 164.227 287.449,164.340 287.603,164.202 287.828 C 164.063 288.052,164.111 288.118,164.320 287.989 C 164.514 287.869,164.895 287.994,165.167 288.266 C 165.440 288.538,165.821 288.761,166.014 288.761 C 166.208 288.761,166.366 288.916,166.366 289.104 C 166.366 289.510,167.857 291.058,168.247 291.058 C 168.396 291.058,168.731 291.354,168.991 291.715 C 169.251 292.075,169.727 292.371,170.048 292.371 C 170.369 292.371,170.632 292.529,170.632 292.722 C 170.632 293.177,171.466 294.011,171.921 294.011 C 172.114 294.011,172.272 294.159,172.272 294.340 C 172.272 294.520,172.504 294.668,172.788 294.668 C 173.377 294.668,174.241 295.434,174.241 295.957 C 174.241 296.150,174.463 296.308,174.733 296.308 C 175.004 296.308,175.226 296.456,175.226 296.637 C 175.226 296.817,175.488 296.965,175.809 296.965 C 176.131 296.965,176.606 297.260,176.866 297.621 C 177.126 297.982,177.676 298.277,178.087 298.277 C 178.499 298.277,178.835 298.435,178.835 298.629 C 178.835 299.152,179.699 299.918,180.288 299.918 C 180.572 299.918,180.804 300.066,180.804 300.246 C 180.804 300.427,181.025 300.574,181.296 300.574 C 181.567 300.574,181.788 300.722,181.788 300.902 C 181.788 301.083,182.002 301.231,182.264 301.231 C 182.525 301.231,183.137 301.600,183.624 302.051 C 184.111 302.502,184.709 302.871,184.954 302.871 C 185.198 302.871,185.398 303.019,185.398 303.199 C 185.398 303.380,185.693 303.527,186.054 303.527 C 186.415 303.527,186.710 303.675,186.710 303.856 C 186.710 304.036,186.920 304.184,187.175 304.184 C 187.431 304.184,187.689 304.309,187.750 304.462 C 187.905 304.858,190.904 306.481,191.480 306.481 C 191.744 306.481,191.961 306.628,191.961 306.809 C 191.961 306.989,192.247 307.137,192.598 307.137 C 192.948 307.137,193.326 307.285,193.437 307.465 C 193.549 307.646,193.927 307.793,194.277 307.793 C 194.627 307.793,194.914 308.015,194.914 308.285 C 194.914 308.559,195.206 308.778,195.570 308.778 C 195.931 308.778,196.226 308.925,196.226 309.106 C 196.226 309.286,196.596 309.434,197.047 309.434 C 197.498 309.434,197.867 309.582,197.867 309.762 C 197.867 309.943,198.236 310.090,198.687 310.090 C 199.139 310.090,199.508 310.238,199.508 310.418 C 199.508 310.599,199.951 310.747,200.492 310.747 C 201.148 310.747,201.477 310.911,201.477 311.239 C 201.477 311.509,201.763 311.731,202.114 311.731 C 202.464 311.731,202.842 311.879,202.953 312.059 C 203.065 312.240,203.525 312.387,203.976 312.387 C 204.428 312.387,204.724 312.504,204.636 312.647 C 204.548 312.790,204.945 312.943,205.519 312.986 C 206.093 313.029,206.612 313.207,206.672 313.382 C 206.732 313.557,207.196 313.700,207.703 313.700 C 208.220 313.700,208.708 313.916,208.814 314.192 C 208.918 314.463,209.294 314.684,209.650 314.684 C 210.006 314.684,210.389 314.832,210.500 315.012 C 210.612 315.193,211.137 315.340,211.668 315.340 C 212.199 315.340,212.633 315.488,212.633 315.669 C 212.633 315.849,213.068 315.997,213.598 315.997 C 214.129 315.997,214.655 316.144,214.766 316.325 C 214.878 316.505,215.488 316.653,216.122 316.653 C 216.755 316.653,217.496 316.874,217.766 317.145 C 218.037 317.416,218.617 317.637,219.055 317.637 C 219.494 317.637,219.852 317.785,219.852 317.966 C 219.852 318.146,220.517 318.294,221.329 318.294 C 222.141 318.294,222.806 318.441,222.806 318.622 C 222.806 318.802,223.470 318.950,224.282 318.950 C 225.094 318.950,225.759 319.098,225.759 319.278 C 225.759 319.459,226.411 319.606,227.208 319.606 C 228.025 319.606,228.713 319.774,228.786 319.991 C 228.858 320.207,229.805 320.440,230.946 320.523 C 232.063 320.603,232.978 320.799,232.978 320.958 C 232.978 321.117,234.011 321.247,235.275 321.247 C 236.587 321.247,237.572 321.388,237.572 321.575 C 237.572 321.766,238.666 321.903,240.197 321.903 C 241.728 321.903,242.822 322.040,242.822 322.231 C 242.822 322.435,244.627 322.559,247.580 322.559 C 250.533 322.559,252.338 322.684,252.338 322.888 C 252.338 323.096,254.963 323.216,259.557 323.216 C 264.151 323.216,266.776 323.096,266.776 322.888 C 266.776 322.684,268.581 322.559,271.534 322.559 C 274.487 322.559,276.292 322.435,276.292 322.231 C 276.292 322.037,277.495 321.903,279.245 321.903 C 280.995 321.903,282.199 321.770,282.199 321.575 C 282.199 321.390,283.128 321.247,284.331 321.247 C 285.535 321.247,286.464 321.104,286.464 320.919 C 286.464 320.738,287.281 320.591,288.279 320.591 C 289.590 320.591,290.147 320.454,290.283 320.098 C 290.419 319.745,290.972 319.606,292.242 319.606 C 293.215 319.606,294.011 319.459,294.011 319.278 C 294.011 319.098,294.676 318.950,295.488 318.950 C 296.300 318.950,296.965 318.802,296.965 318.622 C 296.965 318.441,297.547 318.294,298.258 318.294 C 298.969 318.294,299.642 318.146,299.754 317.966 C 299.865 317.785,300.391 317.637,300.922 317.637 C 301.561 317.637,301.887 317.471,301.887 317.145 C 301.887 316.782,302.267 316.653,303.336 316.653 C 304.133 316.653,304.835 316.510,304.895 316.335 C 304.955 316.161,305.474 315.982,306.048 315.939 C 306.622 315.896,307.019 315.744,306.931 315.601 C 306.842 315.457,307.296 315.340,307.938 315.340 C 309.669 315.340,309.573 314.050,307.708 312.256 C 306.180 310.786,302.823 306.844,301.623 305.112 C 300.108 302.925,297.953 299.408,297.588 298.526 C 297.252 297.716,297.048 297.621,295.635 297.621 C 292.983 297.621,292.755 297.028,292.598 289.715 C 292.471 283.802,292.065 279.408,291.404 276.784 C 290.981 275.101,290.981 271.905,291.404 270.221 C 291.867 268.384,292.419 263.860,292.596 260.447 L 292.746 257.564 291.820 257.782 C 291.311 257.903,290.754 258.130,290.582 258.287 C 290.411 258.444,289.956 258.573,289.571 258.573 C 289.186 258.573,288.762 258.681,288.630 258.813 C 288.365 259.078,286.325 259.768,284.413 260.239 C 283.737 260.405,282.555 260.698,281.788 260.890 C 280.003 261.336,277.599 261.803,275.294 262.149 C 274.294 262.300,273.183 262.515,272.825 262.629 C 269.479 263.691,249.676 263.698,247.088 262.638 C 246.817 262.527,245.710 262.311,244.627 262.158 C 242.305 261.830,239.918 261.374,237.982 260.890 C 237.215 260.698,236.034 260.405,235.357 260.239 C 233.445 259.768,231.405 259.078,231.140 258.813 C 231.008 258.681,230.627 258.573,230.294 258.573 C 229.960 258.573,229.394 258.425,229.036 258.244 C 228.677 258.064,228.091 257.769,227.732 257.588 C 227.374 257.408,226.930 257.260,226.746 257.260 C 226.562 257.260,225.647 256.891,224.711 256.440 C 223.776 255.989,222.817 255.619,222.580 255.619 C 222.343 255.619,222.149 255.472,222.149 255.291 C 222.149 255.111,221.933 254.963,221.669 254.963 C 221.404 254.963,220.555 254.616,219.782 254.192 C 219.009 253.767,217.490 252.942,216.407 252.357 C 215.324 251.773,213.968 250.939,213.394 250.504 C 212.819 250.069,212.247 249.713,212.123 249.713 C 211.890 249.713,207.678 246.797,207.383 246.432 C 207.293 246.321,206.911 246.016,206.535 245.756 C 202.867 243.217,193.576 233.889,191.639 230.800 C 191.371 230.373,191.039 230.025,190.900 230.025 C 190.762 230.025,190.648 229.815,190.648 229.560 C 190.648 229.304,190.533 229.046,190.393 228.986 C 190.044 228.836,187.039 224.215,187.039 223.828 C 187.039 223.657,186.901 223.467,186.733 223.407 C 186.362 223.274,182.700 215.943,182.089 214.110 C 181.848 213.388,181.561 212.650,181.451 212.469 C 181.341 212.289,181.062 211.477,180.831 210.664 C 180.600 209.852,180.280 208.934,180.120 208.625 C 179.677 207.772,178.666 203.668,178.157 200.656 C 176.490 190.811,176.669 182.552,178.787 171.616 C 179.108 169.958,180.374 165.846,180.832 164.976 C 180.997 164.662,181.132 164.180,181.132 163.905 C 181.132 163.629,181.270 163.147,181.439 162.834 C 181.608 162.521,182.088 161.457,182.505 160.470 C 182.923 159.483,183.987 157.268,184.869 155.548 C 185.751 153.827,186.637 152.089,186.838 151.684 C 187.039 151.280,187.313 150.947,187.449 150.946 C 187.584 150.945,187.702 150.759,187.710 150.533 C 187.724 150.144,190.179 146.607,193.156 142.685 C 195.973 138.975,206.491 129.069,208.367 128.361 C 208.638 128.258,209.055 127.981,209.294 127.745 C 210.032 127.016,212.568 125.349,212.939 125.349 C 213.132 125.349,213.290 125.201,213.290 125.021 C 213.290 124.840,213.434 124.692,213.611 124.692 C 213.788 124.692,214.711 124.206,215.662 123.612 C 217.201 122.651,222.877 119.795,224.610 119.111 C 224.971 118.968,225.931 118.562,226.743 118.208 C 227.555 117.854,229.475 117.155,231.009 116.654 C 232.543 116.153,234.094 115.627,234.454 115.485 C 234.815 115.342,235.480 115.149,235.931 115.056 C 236.382 114.963,237.637 114.641,238.720 114.342 C 248.443 111.658,265.894 111.270,277.769 113.475 C 280.917 114.059,283.021 114.592,283.331 114.883 C 283.502 115.044,283.935 115.176,284.292 115.176 C 284.991 115.176,286.930 115.734,287.854 116.201 C 288.168 116.359,288.622 116.489,288.864 116.489 C 289.240 116.489,291.939 117.479,294.176 118.438 C 294.537 118.592,295.422 118.972,296.144 119.281 C 298.144 120.137,300.391 121.225,300.574 121.426 C 300.664 121.525,301.550 122.018,302.543 122.521 C 305.085 123.810,310.926 127.388,311.403 127.949 C 311.493 128.055,312.158 128.578,312.879 129.112 C 313.601 129.646,314.361 130.236,314.568 130.423 C 314.775 130.610,315.613 131.280,316.430 131.911 C 318.746 133.702,324.871 139.985,327.306 143.068 C 328.517 144.602,329.717 146.117,329.972 146.435 C 330.226 146.753,330.435 147.103,330.435 147.212 C 330.435 147.321,330.952 148.114,331.583 148.975 C 332.215 149.835,332.732 150.644,332.732 150.773 C 332.732 150.901,333.006 151.398,333.340 151.877 C 334.281 153.223,336.617 157.946,338.315 161.936 C 338.469 162.297,338.773 163.183,338.990 163.905 C 339.208 164.627,339.502 165.513,339.645 165.874 C 340.612 168.321,341.724 172.831,342.316 176.702 C 342.769 179.664,342.767 195.741,342.314 198.523 C 341.808 201.627,341.359 203.700,340.753 205.742 C 340.458 206.735,340.140 207.953,340.046 208.450 C 339.953 208.946,339.745 209.352,339.585 209.352 C 339.425 209.352,339.295 209.786,339.295 210.317 C 339.295 210.848,339.147 211.373,338.966 211.485 C 338.786 211.596,338.638 211.910,338.638 212.181 C 338.638 212.685,337.660 214.966,336.034 218.249 L 335.123 220.090 336.142 219.825 C 339.986 218.827,347.144 218.705,353.897 219.524 C 365.412 220.920,376.189 226.455,385.313 235.659 C 388.477 238.851,389.500 239.483,389.500 238.247 C 389.500 237.897,389.647 237.519,389.828 237.408 C 390.008 237.296,390.156 236.771,390.156 236.240 C 390.156 235.709,390.304 235.275,390.484 235.275 C 390.664 235.275,390.812 234.758,390.812 234.126 C 390.812 233.495,390.960 232.978,391.140 232.978 C 391.321 232.978,391.468 232.524,391.468 231.970 C 391.468 231.416,391.690 230.741,391.961 230.470 C 392.231 230.199,392.453 229.471,392.453 228.853 C 392.453 228.234,392.600 227.728,392.781 227.728 C 392.961 227.728,393.109 227.220,393.109 226.599 C 393.109 225.978,393.257 225.378,393.437 225.267 C 393.618 225.155,393.765 224.408,393.765 223.607 C 393.765 222.805,393.913 222.149,394.094 222.149 C 394.274 222.149,394.422 221.346,394.422 220.364 C 394.422 219.382,394.569 218.487,394.750 218.376 C 394.930 218.264,395.078 217.238,395.078 216.094 C 395.078 214.550,395.204 213.968,395.570 213.827 C 395.960 213.678,396.062 212.990,396.062 210.530 C 396.062 208.821,396.201 207.336,396.371 207.231 C 396.811 206.959,396.838 188.679,396.399 188.679 C 396.190 188.679,396.062 187.373,396.062 185.234 C 396.062 182.390,395.976 181.788,395.570 181.788 C 395.174 181.788,395.078 181.278,395.078 179.163 C 395.078 177.632,394.941 176.538,394.750 176.538 C 394.569 176.538,394.422 175.726,394.422 174.733 C 394.422 173.741,394.274 172.929,394.094 172.929 C 393.913 172.929,393.765 172.264,393.765 171.452 C 393.765 170.640,393.618 169.975,393.437 169.975 C 393.257 169.975,393.109 169.311,393.109 168.499 C 393.109 167.687,392.961 167.022,392.781 167.022 C 392.600 167.022,392.451 166.690,392.448 166.284 C 392.441 165.126,392.079 164.059,391.759 164.256 C 391.599 164.355,391.468 163.828,391.468 163.084 C 391.468 162.267,391.339 161.813,391.140 161.936 C 390.945 162.057,390.812 161.666,390.812 160.971 C 390.812 160.329,390.664 159.803,390.484 159.803 C 390.304 159.803,390.156 159.286,390.156 158.655 C 390.156 158.023,390.008 157.506,389.828 157.506 C 389.647 157.506,389.500 157.239,389.500 156.913 C 389.500 156.586,389.283 156.032,389.018 155.682 C 388.753 155.332,388.531 154.787,388.526 154.471 C 388.520 154.155,388.368 153.897,388.187 153.897 C 388.007 153.897,387.859 153.462,387.859 152.932 C 387.859 152.401,387.711 151.875,387.531 151.764 C 387.350 151.652,387.203 151.274,387.203 150.924 C 387.203 150.574,387.055 150.287,386.874 150.287 C 386.694 150.287,386.546 149.987,386.546 149.621 C 386.546 149.254,386.325 148.869,386.054 148.765 C 385.783 148.661,385.562 148.297,385.562 147.955 C 385.562 147.613,385.414 147.334,385.234 147.334 C 385.053 147.334,384.906 146.965,384.906 146.514 C 384.906 146.062,384.758 145.693,384.578 145.693 C 384.397 145.693,384.249 145.398,384.249 145.037 C 384.249 144.676,384.102 144.381,383.921 144.381 C 383.741 144.381,383.593 144.011,383.593 143.560 C 383.593 143.050,383.407 142.740,383.101 142.740 C 382.827 142.740,382.609 142.448,382.609 142.084 C 382.609 141.723,382.461 141.427,382.281 141.427 C 382.100 141.427,381.952 141.220,381.952 140.966 C 381.952 140.291,380.544 137.761,380.066 137.577 C 379.840 137.491,379.655 137.140,379.655 136.798 C 379.655 136.457,379.545 136.176,379.409 136.175 C 379.274 136.173,379.001 135.841,378.802 135.436 C 377.690 133.172,376.859 131.911,376.477 131.911 C 376.240 131.911,376.046 131.575,376.046 131.163 C 376.046 130.752,375.751 130.203,375.390 129.943 C 375.029 129.682,374.733 129.293,374.733 129.078 C 374.733 128.863,374.217 128.154,373.585 127.504 C 372.953 126.853,372.436 126.102,372.436 125.835 C 372.436 125.567,372.289 125.349,372.108 125.349 C 371.928 125.349,371.780 125.190,371.780 124.997 C 371.780 124.615,370.972 123.708,370.632 123.708 C 370.227 123.708,369.483 122.767,369.483 122.255 C 369.483 121.971,369.336 121.739,369.155 121.739 C 368.975 121.739,368.827 121.518,368.827 121.247 C 368.827 120.976,368.716 120.755,368.581 120.754 C 368.253 120.754,366.530 119.262,366.530 118.979 C 366.530 118.856,366.198 118.395,365.792 117.954 C 363.947 115.951,363.577 115.517,363.577 115.359 C 363.577 115.265,362.432 114.078,361.034 112.719 C 359.635 111.361,358.040 109.807,357.489 109.267 C 356.939 108.727,356.311 108.285,356.095 108.285 C 355.878 108.285,355.701 108.138,355.701 107.957 C 355.701 107.777,355.543 107.629,355.350 107.629 C 354.972 107.629,354.061 106.823,354.061 106.489 C 354.061 106.150,352.473 104.676,352.107 104.676 C 351.918 104.676,351.764 104.528,351.764 104.348 C 351.764 104.167,351.468 104.020,351.107 104.020 C 350.743 104.020,350.451 103.801,350.451 103.527 C 350.451 103.257,350.340 103.035,350.205 103.034 C 350.070 103.033,349.487 102.590,348.910 102.049 C 348.334 101.509,347.632 101.066,347.352 101.066 C 347.071 101.066,346.842 100.845,346.842 100.574 C 346.842 100.304,346.653 100.082,346.422 100.082 C 346.191 100.082,345.789 99.787,345.529 99.426 C 345.269 99.065,344.861 98.769,344.624 98.769 C 344.386 98.769,343.604 98.188,342.886 97.477 C 342.168 96.767,341.288 96.092,340.930 95.979 C 340.572 95.865,340.279 95.634,340.279 95.466 C 340.279 95.298,340.125 95.160,339.936 95.160 C 339.747 95.160,339.232 94.828,338.791 94.422 C 336.783 92.573,336.353 92.207,336.191 92.207 C 336.024 92.207,334.732 91.161,333.860 90.320 C 333.626 90.094,333.309 89.910,333.156 89.910 C 333.002 89.910,332.664 89.614,332.404 89.253 C 332.143 88.893,331.739 88.597,331.505 88.597 C 331.271 88.597,330.578 88.080,329.964 87.449 C 329.351 86.817,328.615 86.300,328.329 86.300 C 328.043 86.300,327.810 86.153,327.810 85.972 C 327.810 85.792,327.613 85.644,327.373 85.644 C 327.133 85.644,326.740 85.277,326.499 84.828 C 326.259 84.378,325.643 83.826,325.131 83.599 C 324.619 83.372,324.200 83.075,324.200 82.939 C 324.200 82.802,324.037 82.691,323.837 82.691 C 323.638 82.691,323.184 82.322,322.829 81.870 C 322.474 81.419,321.973 81.050,321.715 81.050 C 321.458 81.050,321.247 80.902,321.247 80.722 C 321.247 80.541,321.058 80.394,320.827 80.394 C 320.596 80.394,320.195 80.098,319.934 79.737 C 319.674 79.377,319.199 79.081,318.878 79.081 C 318.556 79.081,318.294 78.860,318.294 78.589 C 318.294 78.318,318.145 78.097,317.963 78.097 C 317.780 78.097,317.168 77.654,316.601 77.112 C 316.035 76.571,315.298 76.128,314.964 76.128 C 314.629 76.128,314.356 75.974,314.356 75.785 C 314.356 75.247,312.804 73.831,312.215 73.831 C 311.691 73.831,310.747 73.092,310.747 72.683 C 310.747 72.344,310.002 71.736,308.942 71.208 C 308.400 70.939,307.532 70.238,307.013 69.650 C 306.494 69.062,305.852 68.581,305.586 68.581 C 305.321 68.581,304.690 68.138,304.184 67.596 C 303.678 67.055,303.107 66.612,302.915 66.612 C 302.722 66.612,302.048 66.095,301.416 65.463 C 300.785 64.832,300.115 64.315,299.929 64.315 C 299.742 64.315,299.590 64.167,299.590 63.987 C 299.590 63.806,299.295 63.659,298.934 63.659 C 298.573 63.659,298.277 63.501,298.277 63.307 C 298.277 62.853,297.442 62.018,296.988 62.018 C 296.795 62.018,296.637 61.870,296.637 61.690 C 296.637 61.509,296.405 61.362,296.121 61.362 C 295.596 61.362,294.668 60.614,294.668 60.191 C 294.668 59.857,293.594 59.088,293.111 59.075 C 292.886 59.070,292.029 58.400,291.205 57.588 C 290.381 56.776,289.567 56.112,289.395 56.112 C 289.224 56.112,288.620 55.669,288.053 55.127 C 287.487 54.586,286.902 54.143,286.755 54.143 C 286.607 54.143,285.969 53.626,285.338 52.994 C 284.706 52.363,284.037 51.846,283.850 51.846 C 283.664 51.846,283.511 51.698,283.511 51.518 C 283.511 51.337,283.310 51.189,283.065 51.189 C 282.819 51.189,282.341 50.820,282.003 50.369 C 281.664 49.918,281.200 49.549,280.972 49.549 C 280.744 49.549,280.558 49.401,280.558 49.221 C 280.558 49.040,280.326 48.893,280.042 48.893 C 279.453 48.893,278.589 48.126,278.589 47.603 C 278.589 47.410,278.368 47.252,278.097 47.252 C 277.826 47.252,277.605 47.104,277.605 46.924 C 277.605 46.743,277.384 46.596,277.114 46.596 C 276.845 46.596,275.950 45.931,275.126 45.119 C 274.302 44.307,273.448 43.642,273.228 43.642 C 273.008 43.642,272.615 43.347,272.354 42.986 C 272.094 42.625,271.756 42.330,271.602 42.330 C 271.449 42.330,271.129 42.145,270.891 41.920 C 270.653 41.694,270.048 41.214,269.547 40.853 C 269.046 40.492,268.450 40.012,268.222 39.787 C 267.994 39.561,267.575 39.377,267.292 39.377 C 267.008 39.377,266.776 39.190,266.776 38.962 C 266.776 38.734,266.383 38.254,265.902 37.896 C 265.421 37.537,264.840 37.059,264.612 36.833 C 264.384 36.608,264.030 36.423,263.824 36.423 C 263.619 36.423,262.963 35.906,262.367 35.275 C 261.772 34.643,261.076 34.126,260.821 34.126 C 260.567 34.126,260.145 33.831,259.885 33.470 C 259.625 33.109,259.223 32.814,258.992 32.814 C 258.761 32.814,258.573 32.605,258.573 32.349 C 258.573 32.093,258.130 31.688,257.588 31.449 C 257.047 31.209,256.604 30.901,256.604 30.765 C 256.604 30.628,256.446 30.517,256.252 30.517 C 256.059 30.517,255.716 30.332,255.490 30.107 C 255.264 29.881,254.516 29.253,253.827 28.712 C 253.138 28.171,252.384 27.543,252.152 27.317 C 251.919 27.092,251.497 26.907,251.213 26.907 C 250.929 26.907,250.697 26.686,250.697 26.415 C 250.697 26.144,250.587 25.923,250.451 25.922 C 250.316 25.922,249.688 25.479,249.057 24.938 C 248.425 24.398,247.778 23.955,247.619 23.955 C 247.460 23.954,246.842 23.437,246.246 22.806 C 245.650 22.174,244.932 21.657,244.649 21.657 C 244.366 21.657,244.135 21.509,244.135 21.329 C 244.135 21.148,243.976 21.001,243.783 21.001 C 243.320 21.001,242.494 20.162,242.494 19.692 C 242.494 19.488,242.373 19.396,242.225 19.487 C 242.078 19.579,241.567 19.292,241.091 18.850 C 240.615 18.409,240.071 18.048,239.883 18.048 C 239.695 18.048,239.541 17.900,239.541 17.719 C 239.541 17.539,239.310 17.391,239.029 17.391 C 238.748 17.391,238.602 17.254,238.706 17.087 C 238.809 16.919,238.633 16.699,238.315 16.596 C 237.996 16.494,237.219 15.967,236.587 15.425 C 235.956 14.883,235.339 14.439,235.216 14.439 C 235.094 14.438,234.300 13.774,233.452 12.961 C 232.605 12.149,231.634 11.485,231.296 11.485 C 230.958 11.485,230.680 11.300,230.679 11.075 C 230.676 10.657,228.761 9.194,228.200 9.181 C 228.030 9.177,227.450 8.660,226.910 8.032 C 226.371 7.405,225.780 6.888,225.598 6.884 C 225.416 6.880,224.897 6.588,224.446 6.235 C 223.995 5.882,223.368 5.590,223.052 5.586 C 222.736 5.582,222.477 5.431,222.477 5.250 C 222.477 5.070,222.034 4.922,221.493 4.922 C 220.909 4.922,220.509 4.750,220.509 4.500 C 220.509 4.259,220.052 4.042,219.448 3.996 C 218.864 3.952,218.244 3.773,218.069 3.598 C 217.895 3.424,216.388 3.281,214.720 3.281 C 213.052 3.281,211.596 3.134,211.485 2.953 C 211.373 2.773,211.152 2.625,210.993 2.625 C 210.833 2.625,210.612 2.773,210.500 2.953 " stroke="none" fill="#eb7404" fill-rule="evenodd"></path><path id="path4" d="M187.449 20.837 C 187.453 21.559,187.520 21.815,187.599 21.407 C 187.677 20.999,187.674 20.408,187.592 20.095 C 187.510 19.781,187.446 20.115,187.449 20.837 M252.174 112.264 C 247.102 112.651,241.980 113.442,238.720 114.342 C 237.637 114.641,236.382 114.963,235.931 115.056 C 235.480 115.149,234.815 115.342,234.454 115.485 C 234.094 115.627,232.543 116.153,231.009 116.654 C 229.475 117.155,227.555 117.854,226.743 118.208 C 225.931 118.562,224.971 118.968,224.610 119.111 C 222.877 119.795,217.201 122.651,215.662 123.612 C 214.711 124.206,213.788 124.692,213.611 124.692 C 213.434 124.692,213.290 124.840,213.290 125.021 C 213.290 125.201,213.132 125.349,212.939 125.349 C 212.568 125.349,210.032 127.016,209.294 127.745 C 209.055 127.981,208.638 128.258,208.367 128.361 C 206.491 129.069,195.973 138.975,193.156 142.685 C 190.179 146.607,187.724 150.144,187.710 150.533 C 187.702 150.759,187.584 150.945,187.449 150.946 C 187.313 150.947,187.039 151.280,186.838 151.684 C 186.637 152.089,185.751 153.827,184.869 155.548 C 183.987 157.268,182.923 159.483,182.505 160.470 C 182.088 161.457,181.608 162.521,181.439 162.834 C 181.270 163.147,181.132 163.629,181.132 163.905 C 181.132 164.180,180.997 164.662,180.832 164.976 C 180.374 165.846,179.108 169.958,178.787 171.616 C 176.669 182.552,176.490 190.811,178.157 200.656 C 178.666 203.668,179.677 207.772,180.120 208.625 C 180.280 208.934,180.600 209.852,180.831 210.664 C 181.062 211.477,181.341 212.289,181.451 212.469 C 181.561 212.650,181.848 213.388,182.089 214.110 C 182.700 215.943,186.362 223.274,186.733 223.407 C 186.901 223.467,187.039 223.657,187.039 223.828 C 187.039 224.215,190.044 228.836,190.393 228.986 C 190.533 229.046,190.648 229.304,190.648 229.560 C 190.648 229.815,190.762 230.025,190.900 230.025 C 191.039 230.025,191.371 230.373,191.639 230.800 C 193.576 233.889,202.867 243.217,206.535 245.756 C 206.911 246.016,207.293 246.321,207.383 246.432 C 207.678 246.797,211.890 249.713,212.123 249.713 C 212.247 249.713,212.819 250.069,213.394 250.504 C 213.968 250.939,215.324 251.773,216.407 252.357 C 217.490 252.942,219.009 253.767,219.782 254.192 C 220.555 254.616,221.404 254.963,221.669 254.963 C 221.933 254.963,222.149 255.111,222.149 255.291 C 222.149 255.472,222.343 255.619,222.580 255.619 C 222.817 255.619,223.776 255.989,224.711 256.440 C 225.647 256.891,226.562 257.260,226.746 257.260 C 226.930 257.260,227.374 257.408,227.732 257.588 C 228.091 257.769,228.677 258.064,229.036 258.244 C 229.394 258.425,229.960 258.573,230.294 258.573 C 230.627 258.573,231.008 258.681,231.140 258.813 C 231.413 259.086,233.486 259.780,235.439 260.254 C 236.161 260.428,237.342 260.722,238.064 260.905 C 239.883 261.367,242.299 261.829,244.627 262.158 C 245.710 262.311,246.817 262.527,247.088 262.638 C 249.676 263.698,269.479 263.691,272.825 262.629 C 273.183 262.515,274.294 262.300,275.294 262.149 C 277.599 261.803,280.003 261.336,281.788 260.890 C 282.555 260.698,283.737 260.405,284.413 260.239 C 286.325 259.768,288.365 259.078,288.630 258.813 C 288.762 258.681,289.186 258.573,289.571 258.573 C 289.956 258.573,290.411 258.444,290.582 258.287 C 290.754 258.130,291.284 257.909,291.761 257.797 L 292.628 257.593 292.870 263.734 C 293.004 267.111,293.005 275.667,292.872 282.748 C 292.589 297.935,292.535 297.660,295.757 297.577 L 297.457 297.533 295.900 297.316 C 293.352 296.961,293.529 298.444,293.430 276.604 C 293.356 260.397,293.263 256.932,292.899 256.932 C 292.657 256.932,291.737 257.210,290.856 257.551 C 288.785 258.351,284.456 259.698,282.363 260.194 C 281.460 260.408,280.205 260.710,279.573 260.866 C 268.702 263.550,251.068 263.550,240.197 260.866 C 239.565 260.710,238.310 260.413,237.408 260.205 C 235.868 259.850,231.320 258.469,229.861 257.914 C 223.376 255.448,218.720 253.180,212.692 249.549 C 200.503 242.207,188.475 228.114,182.857 214.593 C 180.626 209.225,179.351 204.639,178.115 197.539 C 177.542 194.249,177.542 181.469,178.115 178.179 C 179.226 171.799,180.599 166.379,181.856 163.413 C 182.048 162.961,182.317 162.297,182.456 161.936 C 182.730 161.221,183.842 158.671,184.674 156.850 C 188.123 149.299,195.505 139.826,203.117 133.185 C 205.500 131.105,211.766 126.333,212.114 126.333 C 212.208 126.333,213.286 125.691,214.510 124.906 C 232.629 113.286,260.257 109.246,282.034 115.031 C 283.839 115.511,285.724 115.978,286.222 116.070 C 286.721 116.161,287.209 116.367,287.308 116.527 C 287.407 116.686,287.741 116.817,288.050 116.817 C 288.359 116.817,289.790 117.271,291.230 117.825 C 311.730 125.719,326.704 139.056,335.688 157.422 C 336.769 159.632,337.654 161.591,337.654 161.775 C 337.654 161.959,337.799 162.365,337.977 162.679 C 341.052 168.091,343.393 185.470,342.275 194.586 C 341.380 201.890,339.636 209.057,337.944 212.383 C 337.784 212.696,337.654 213.124,337.654 213.335 C 337.654 213.545,336.989 215.083,336.177 216.752 C 334.650 219.891,334.486 220.352,335.008 220.029 C 335.498 219.727,338.638 212.937,338.638 212.181 C 338.638 211.910,338.786 211.596,338.966 211.485 C 339.147 211.373,339.295 210.848,339.295 210.317 C 339.295 209.786,339.425 209.352,339.585 209.352 C 339.745 209.352,339.953 208.946,340.046 208.450 C 340.140 207.953,340.458 206.735,340.753 205.742 C 341.359 203.700,341.808 201.627,342.314 198.523 C 342.767 195.741,342.769 179.664,342.316 176.702 C 341.724 172.831,340.612 168.321,339.645 165.874 C 339.502 165.513,339.208 164.627,338.990 163.905 C 338.773 163.183,338.469 162.297,338.315 161.936 C 336.617 157.946,334.281 153.223,333.340 151.877 C 333.006 151.398,332.732 150.901,332.732 150.773 C 332.732 150.644,332.215 149.835,331.583 148.975 C 330.952 148.114,330.435 147.321,330.435 147.212 C 330.435 147.103,330.226 146.753,329.972 146.435 C 329.717 146.117,328.517 144.602,327.306 143.068 C 324.871 139.985,318.746 133.702,316.430 131.911 C 315.613 131.280,314.775 130.610,314.568 130.423 C 314.361 130.236,313.601 129.646,312.879 129.112 C 312.158 128.578,311.493 128.055,311.403 127.949 C 310.926 127.388,305.085 123.810,302.543 122.521 C 301.550 122.018,300.664 121.525,300.574 121.426 C 300.391 121.225,298.144 120.137,296.144 119.281 C 295.422 118.972,294.537 118.592,294.176 118.438 C 291.939 117.479,289.240 116.489,288.864 116.489 C 288.622 116.489,288.168 116.359,287.854 116.201 C 286.930 115.734,284.991 115.176,284.292 115.176 C 283.935 115.176,283.502 115.044,283.331 114.883 C 283.021 114.592,280.917 114.059,277.769 113.475 C 270.388 112.105,260.434 111.634,252.174 112.264 M260.788 233.543 C 261.374 233.616,262.334 233.616,262.920 233.543 C 263.507 233.471,263.027 233.411,261.854 233.411 C 260.681 233.411,260.201 233.471,260.788 233.543 M355.528 273.503 C 355.528 285.775,355.569 290.748,355.619 284.554 C 355.669 278.359,355.669 268.318,355.619 262.240 C 355.569 256.162,355.528 261.231,355.528 273.503 M373.823 267.167 C 373.782 275.954,373.860 283.213,373.995 283.297 C 374.219 283.435,374.215 271.671,373.986 256.932 C 373.937 253.774,373.864 258.379,373.823 267.167 M342.052 273.667 C 342.052 276.464,342.102 277.609,342.164 276.210 C 342.225 274.811,342.225 272.523,342.164 271.124 C 342.102 269.725,342.052 270.870,342.052 273.667 " stroke="none" fill="#f4a254" fill-rule="evenodd"></path></g></svg>